<?xml version="1.0" standalone="no"?>
<!DOCTYPE svg PUBLIC "-//W3C//DTD SVG 20010904//EN"
 "http://www.w3.org/TR/2001/REC-SVG-20010904/DTD/svg10.dtd">
<svg version="1.0" xmlns="http://www.w3.org/2000/svg"
 width="1569.000000pt" height="1569.000000pt" viewBox="0 0 1569.000000 1569.000000"
 preserveAspectRatio="xMidYMid meet">
<metadata>
Created by potrace 1.14, written by Peter Selinger 2001-2017
</metadata>
<g transform="translate(0.000000,1569.000000) scale(0.100000,-0.100000)"
fill="#000000" stroke="none">
<path d="M5246 12572 c-3 -5 0 -425 5 -933 6 -508 8 -1061 5 -1229 -5 -240 -4
-309 6 -321 7 -9 65 -46 128 -83 63 -37 153 -92 200 -121 47 -29 164 -99 260
-156 96 -56 240 -144 320 -194 80 -51 165 -104 190 -119 25 -15 80 -49 123
-76 43 -28 80 -50 82 -50 2 0 30 -17 62 -38 57 -38 186 -117 247 -152 112 -63
304 -177 379 -224 l87 -55 0 -356 c-1 -303 -3 -357 -16 -362 -13 -5 -93 37
-211 113 -29 19 -57 34 -63 34 -5 0 -10 4 -10 9 0 5 -10 13 -22 16 -13 4 -37
18 -55 31 -17 13 -34 24 -37 24 -4 0 -52 28 -109 63 -56 35 -109 66 -117 70
-8 4 -60 36 -115 72 -84 54 -350 212 -444 265 -15 9 -59 34 -97 57 -38 22
-139 80 -224 128 -306 173 -425 244 -507 301 -34 24 -65 39 -68 35 -3 -5 0
-371 6 -812 6 -442 9 -951 6 -1130 -3 -179 -3 -337 0 -351 3 -18 19 -32 56
-51 71 -36 112 -61 351 -212 113 -71 243 -153 289 -182 45 -29 94 -59 110 -68
15 -9 107 -68 205 -132 268 -176 474 -303 492 -303 9 0 48 25 86 55 70 57 102
79 254 177 47 30 168 120 270 199 204 158 468 339 495 339 9 0 38 -20 64 -44
25 -25 82 -71 126 -102 44 -32 85 -63 91 -69 6 -5 70 -50 143 -100 73 -49 194
-135 271 -190 76 -55 148 -107 160 -115 63 -43 198 -145 221 -166 14 -13 28
-24 33 -24 4 0 39 24 79 53 40 29 149 102 242 161 94 60 289 188 434 285 427
286 519 343 659 410 38 18 52 30 52 45 0 12 2 535 3 1164 l4 1143 -26 -6 c-14
-4 -37 -17 -51 -29 -68 -63 -294 -209 -651 -421 -29 -17 -122 -75 -166 -103
-23 -15 -97 -61 -165 -102 -68 -41 -177 -111 -243 -156 -66 -44 -185 -120
-264 -168 -79 -48 -170 -105 -203 -126 -33 -22 -70 -43 -84 -46 l-24 -6 2 353
3 354 42 22 c40 21 184 111 248 156 44 31 148 100 167 112 83 50 408 264 783
516 55 36 188 123 295 193 107 70 202 131 211 137 8 6 38 23 65 37 l49 27 6
1260 c3 693 2 1264 -2 1268 -8 10 -57 -11 -134 -56 -27 -17 -70 -41 -95 -55
-25 -14 -47 -28 -50 -32 -3 -4 -21 -15 -40 -25 -19 -10 -37 -21 -40 -24 -3 -3
-50 -36 -105 -72 -55 -36 -224 -149 -375 -250 -292 -195 -344 -229 -565 -373
-303 -198 -1017 -678 -1035 -696 -19 -19 -89 -60 -102 -60 -9 0 -38 17 -65 38
-100 78 -391 275 -458 310 -22 11 -85 53 -140 92 -90 64 -212 146 -350 235
-64 42 -403 249 -475 290 -30 17 -100 58 -155 90 -55 32 -120 69 -145 83 -25
14 -71 42 -103 64 -32 21 -60 38 -62 38 -2 0 -70 42 -152 93 -81 51 -155 96
-163 100 -8 4 -31 17 -51 30 -98 62 -316 187 -325 187 -1 0 -5 -4 -8 -8z"/>
<path d="M5055 4488 c-7 -425 -4 -1222 5 -1232 19 -19 382 -49 505 -42 193 11
291 54 425 186 184 182 230 369 155 634 -48 172 -182 314 -347 370 -118 41
-275 37 -371 -9 -30 -14 -57 -25 -60 -25 -4 0 -7 53 -7 118 0 66 -3 187 -7
269 l-6 151 -142 1 -143 2 -7 -423z m640 -337 c76 -36 118 -81 150 -159 21
-52 25 -78 25 -165 0 -90 -3 -109 -25 -154 -36 -72 -97 -137 -152 -164 -122
-59 -283 -6 -344 113 -39 76 -15 379 37 469 51 88 194 115 309 60z"/>
<path d="M11341 4896 c-8 -9 -12 -197 -13 -657 l-3 -644 28 -80 c48 -135 107
-209 202 -251 73 -31 80 -33 141 -44 105 -18 134 6 134 108 0 81 -9 122 -25
116 -29 -11 -105 45 -149 111 l-27 39 7 631 c4 347 4 643 0 658 l-6 27 -139 0
c-104 0 -141 -3 -150 -14z"/>
<path d="M2714 4868 c-5 -8 -7 -368 -4 -823 l5 -810 139 -3 c105 -2 141 1 148
10 4 7 8 163 8 346 l0 332 43 -6 c74 -12 126 -43 177 -108 50 -62 155 -234
250 -409 30 -54 68 -115 86 -135 l32 -37 141 -3 c168 -5 172 -2 113 85 -38 55
-172 280 -172 288 0 6 -131 219 -186 301 -30 44 -54 85 -54 90 0 5 29 22 64
37 159 70 231 200 231 418 0 98 -2 110 -30 163 -42 81 -85 128 -159 175 -75
47 -159 77 -253 91 -104 15 -568 13 -579 -2z m579 -288 c101 -38 137 -96 123
-202 -18 -132 -101 -183 -313 -195 l-113 -6 0 85 c0 96 25 282 42 316 11 21
18 22 109 22 74 0 112 -5 152 -20z"/>
<path d="M7496 4862 c-4 -7 -9 -221 -7 -279 1 -10 56 -13 240 -13 209 0 240
-2 245 -16 3 -9 6 -312 6 -675 l0 -659 136 0 c74 0 144 5 155 10 18 10 19 28
19 670 0 362 4 661 9 664 4 3 101 7 215 8 l206 3 0 148 0 147 -609 0 c-336 0
-612 -4 -615 -8z"/>
<path d="M12215 4434 c-103 -16 -208 -78 -258 -152 -47 -68 -62 -121 -62 -212
0 -74 3 -91 27 -131 30 -51 99 -118 149 -145 19 -10 75 -37 124 -59 50 -23
113 -53 140 -67 59 -30 145 -104 145 -123 0 -29 -73 -74 -148 -91 -112 -25
-152 -16 -284 60 -41 23 -54 26 -94 20 -30 -4 -58 -17 -78 -35 -28 -26 -29
-28 -10 -29 27 0 34 -17 34 -83 1 -55 25 -115 50 -127 76 -37 211 -60 351 -60
118 0 147 6 242 48 124 55 216 192 217 319 0 51 -28 143 -58 193 -50 82 -109
122 -272 184 -52 20 -111 44 -130 54 -49 24 -120 81 -120 97 0 22 77 83 121
95 70 19 190 -3 307 -56 18 -9 45 -16 60 -17 l27 -2 12 105 c6 58 9 113 6 123
-12 43 -175 86 -343 92 -69 2 -138 1 -155 -1z"/>
<path d="M7079 4420 c-82 -3 -142 -10 -150 -17 -8 -6 -20 -33 -28 -60 -7 -26
-19 -61 -26 -78 -11 -26 -28 -79 -91 -285 -25 -82 -42 -145 -48 -175 -10 -44
-27 -85 -37 -85 -19 0 -59 102 -104 265 -9 33 -20 71 -25 85 -5 14 -30 94 -56
178 l-49 152 -157 0 c-86 0 -159 -4 -162 -9 -5 -8 5 -39 38 -116 23 -51 92
-244 130 -365 21 -63 41 -124 46 -135 4 -11 25 -72 45 -135 21 -63 55 -157 77
-210 22 -52 45 -107 51 -121 30 -73 -85 -213 -236 -288 -48 -24 -92 -52 -97
-62 -6 -10 -10 -49 -10 -88 0 -59 3 -72 19 -81 41 -22 159 -6 281 37 118 43
228 163 294 323 20 48 42 102 55 135 5 11 25 67 46 125 20 58 43 121 50 140
22 59 72 202 93 270 12 36 49 144 82 240 100 285 121 353 113 359 -4 3 -69 4
-144 1z"/>
<path d="M9130 4410 c-207 -57 -348 -203 -420 -431 -68 -218 32 -497 235 -655
103 -80 169 -99 350 -99 131 0 157 3 207 22 145 57 261 168 328 317 39 86 59
281 40 388 -25 144 -82 242 -198 338 -148 124 -359 171 -542 120z m275 -266
c49 -23 123 -106 151 -171 53 -120 40 -235 -40 -355 -59 -88 -124 -123 -226
-123 -67 0 -80 4 -127 33 -121 77 -177 209 -154 363 20 123 72 206 154 243 52
23 59 24 135 25 48 1 86 -5 107 -15z"/>
<path d="M10495 4424 c-169 -22 -253 -61 -353 -161 -120 -121 -165 -242 -165
-443 -1 -172 37 -290 120 -380 18 -19 33 -38 33 -42 0 -8 116 -98 156 -120 87
-49 217 -69 357 -56 212 20 445 220 515 443 21 68 20 230 -2 319 -54 213 -162
330 -366 399 -93 31 -227 50 -295 41z m155 -286 c81 -35 119 -61 152 -104 42
-55 53 -98 53 -219 -1 -99 -24 -153 -99 -227 -74 -73 -116 -92 -201 -92 -82 0
-134 22 -194 84 -83 85 -109 251 -62 392 45 135 130 193 266 182 33 -3 71 -10
85 -16z"/>
<path d="M3872 4412 c-11 -7 -12 -55 -7 -248 8 -327 21 -483 44 -553 26 -81
66 -159 109 -216 36 -47 137 -134 157 -135 6 0 22 -6 36 -14 14 -7 60 -21 102
-30 70 -16 82 -16 154 -1 75 15 163 43 173 55 3 3 23 17 46 32 51 33 116 99
155 157 59 90 61 109 69 546 4 280 3 402 -4 407 -6 4 -71 8 -144 8 l-132 0
-11 -27 c-8 -20 -9 -128 -5 -353 3 -191 2 -349 -4 -384 -11 -68 -47 -122 -96
-142 -41 -17 -143 -18 -181 -2 -65 28 -122 79 -149 135 l-28 55 -4 352 c-3
203 -9 354 -14 357 -15 10 -252 10 -266 1z"/>
</g>
</svg>
